<svg xmlns="http://www.w3.org/2000/svg" viewBox="0 0 100 125" x="0px" y="0px"><title>Artboard 23</title><path d="M86,17.84a1,1,0,0,0,0-.17l-2.5-7a1,1,0,0,0-1.88,0l-2.5,7a1,1,0,0,0,0,.17A.94.94,0,0,0,79,18V81.5a3.5,3.5,0,0,0,7,0V18A.94.94,0,0,0,86,17.84ZM84,70H81V19h3Zm-3,2h3v2H81Zm1.5-58,1.08,3H81.42Zm0,69A1.5,1.5,0,0,1,81,81.5V76h3v5.5A1.5,1.5,0,0,1,82.5,83Z"/><path d="M72.94,42.68l0-.09a1,1,0,0,0-.2-.29l-11-11a1,1,0,0,0-.29-.2l-.09,0a1,1,0,0,0-.26-.05H60V10a1,1,0,0,0-1-1H51V7a1,1,0,0,0-1-1H20a1,1,0,0,0-1,1V9H10a1,1,0,0,0-1,1V79a1,1,0,0,0,1,1H32V90a1,1,0,0,0,1,1H72a1,1,0,0,0,1-1V43s0,0,0-.06A1,1,0,0,0,72.94,42.68ZM69.59,42H62V34.41ZM58,11V31H56V14a1,1,0,0,0-1-1H51V11ZM33,31a1,1,0,0,0-1,1V73H15V15h4v2a1,1,0,0,0,1,1H50a1,1,0,0,0,1-1V15h3V31ZM21,8H49v8H21ZM11,78V11h8v2H14a1,1,0,0,0-1,1V74a1,1,0,0,0,1,1H32v3ZM34,89V33H60V43a1,1,0,0,0,1,1H71V89Z"/><path d="M39,45H57a1,1,0,0,0,1-1V37a1,1,0,0,0-1-1H39a1,1,0,0,0-1,1v7A1,1,0,0,0,39,45Zm1-7H56v5H40Z"/><path d="M47,54a1,1,0,0,0,0,2h6a1,1,0,0,0,0-2Z"/><path d="M63,58H47a1,1,0,0,0,0,2H63a1,1,0,0,0,0-2Z"/><path d="M47,66h6a1,1,0,0,0,0-2H47a1,1,0,0,0,0,2Z"/><path d="M63,68H47a1,1,0,0,0,0,2H63a1,1,0,0,0,0-2Z"/><path d="M47,76h6a1,1,0,0,0,0-2H47a1,1,0,0,0,0,2Z"/><path d="M63,78H47a1,1,0,0,0,0,2H63a1,1,0,0,0,0-2Z"/><path d="M42,74H37a1,1,0,0,0-1,1v4a1,1,0,0,0,1,1h5a1,1,0,0,0,1-1V75A1,1,0,0,0,42,74Zm-1,4H38V76h3Z"/><path d="M42.38,54.21l-3.13,3.13-1.54-1.54a1,1,0,0,0-1.41,1.41l2.25,2.25a1,1,0,0,0,1.41,0l3.83-3.83a1,1,0,0,0-1.41-1.41Z"/><path d="M42.38,64.21l-3.13,3.13-1.54-1.54a1,1,0,0,0-1.41,1.41l2.25,2.25a1,1,0,0,0,1.41,0l3.83-3.83a1,1,0,0,0-1.41-1.41Z"/><text x="0" y="115" fill="#000000" font-size="5px" font-weight="bold" font-family="'Helvetica Neue', Helvetica, Arial-Unicode, Arial, Sans-serif">Created by Maria Kislitsina</text><text x="0" y="120" fill="#000000" font-size="5px" font-weight="bold" font-family="'Helvetica Neue', Helvetica, Arial-Unicode, Arial, Sans-serif">from the Noun Project</text></svg>