<svg xmlns="http://www.w3.org/2000/svg" xmlns:xlink="http://www.w3.org/1999/xlink" version="1.1" x="0px" y="0px" viewBox="0 0 64 80" style="enable-background:new 0 0 64 64;" xml:space="preserve"><path d="M49,14.008h7.124c0.041,0,0.083-0.003,0.124-0.008C57.247,13.875,58,13.012,58,11.992V8.008c0-0.575-0.248-1.124-0.68-1.506  c-0.43-0.381-1.003-0.554-1.569-0.486l-6.876,0.867C48.375,6.946,48,7.371,48,7.875v1.801c-2.36-0.565-6.698-1.055-10.552,1.49  c-1.132,0.749-2.116,1.707-2.949,2.834H20c-0.302,0-0.587,0.136-0.776,0.37c-0.19,0.233-0.265,0.541-0.202,0.836l2.802,13.308  C16.614,29.071,7,30.624,7,34.5C7,38.966,19.959,41,32,41s25-2.034,25-6.5c0-3.876-9.614-5.429-14.823-5.986L42.496,27H47  c0.446,0,0.839-0.296,0.962-0.726l2-7c0.086-0.302,0.025-0.626-0.163-0.877C49.609,18.147,49.313,18,49,18h-4.61l0.588-2.794  c0.062-0.295-0.012-0.603-0.202-0.836C44.587,14.136,44.302,14,44,14h-6.879c0.442-0.436,0.918-0.827,1.43-1.166  c3.501-2.312,7.565-1.617,9.449-1.095v1.269C48,13.561,48.447,14.008,49,14.008z M46.246,25h-3.329l1.053-5h3.704L46.246,25z   M55,34.5c0,1.527-8.118,4.5-23,4.5S9,36.027,9,34.5c0-0.853,3.357-3.002,13.237-4.02l0.784,3.726C23.119,34.669,23.527,35,24,35h16  c0.473,0,0.881-0.331,0.979-0.794l0.784-3.726C51.643,31.498,55,33.647,55,34.5z M39.188,33H24.812l-3.579-17h21.535L39.188,33z   M50,8.758l6-0.75l-0.015,4H50V8.758z"/><path d="M3,54h1.22l1.811,7.242C6.142,61.688,6.541,62,7,62h14c0.459,0,0.858-0.312,0.97-0.758L23.78,54H25c0.553,0,1-0.447,1-1  c0-6.617-5.383-12-12-12S2,46.383,2,53C2,53.553,2.447,54,3,54z M6.281,54H8.22l1.5,6H7.781L6.281,54z M17.72,54l-1.5,6H15v-6H17.72  z M13,60h-1.22l-1.5-6H13V60z M20.219,60H18.28l1.5-6h1.938L20.219,60z M14,43c5.177,0,9.447,3.954,9.95,9H23H5H4.05  C4.553,46.954,8.823,43,14,43z"/><rect x="13" y="45" width="2" height="2"/><rect x="9" y="47" width="2" height="2"/><rect x="17" y="47" width="2" height="2"/><path d="M50,41c-6.617,0-12,5.383-12,12c0,0.553,0.447,1,1,1h1.22l1.811,7.242C42.142,61.688,42.541,62,43,62h14  c0.459,0,0.858-0.312,0.97-0.758L59.78,54H61c0.553,0,1-0.447,1-1C62,46.383,56.617,41,50,41z M42.281,54h1.938l1.5,6h-1.938  L42.281,54z M53.72,54l-1.5,6H51v-6H53.72z M49,60h-1.22l-1.5-6H49V60z M56.219,60H54.28l1.5-6h1.938L56.219,60z M59,52H41h-0.95  c0.503-5.046,4.773-9,9.95-9s9.447,3.954,9.95,9H59z"/><rect x="49" y="45" width="2" height="2"/><rect x="45" y="47" width="2" height="2"/><rect x="53" y="47" width="2" height="2"/><path d="M31.293,30.707C31.488,30.902,31.744,31,32,31s0.512-0.098,0.707-0.293l3-3c0.391-0.391,0.391-1.023,0-1.414l-3-3  c-0.391-0.391-1.023-0.391-1.414,0l-3,3c-0.391,0.391-0.391,1.023,0,1.414L31.293,30.707z M32,25.414L33.586,27L32,28.586L30.414,27  L32,25.414z"/><rect x="31" y="18" width="2" height="3"/><rect x="36.586" y="20" transform="matrix(0.7071 -0.7071 0.7071 0.7071 -3.7193 33.0208)" width="2.828" height="2"/><rect x="25" y="19.586" transform="matrix(0.7071 -0.7071 0.7071 0.7071 -7.234 24.5355)" width="2" height="2.828"/><path d="M32.993,5.114c0.108-0.942-0.328-1.896-1.298-2.833l-1.391,1.438c0.479,0.462,0.734,0.888,0.702,1.167  c-0.016,0.132-0.097,0.247-0.293,0.497c-0.265,0.336-0.626,0.796-0.707,1.503c-0.108,0.942,0.328,1.896,1.298,2.833l1.391-1.438  c-0.479-0.462-0.734-0.888-0.702-1.167c0.016-0.132,0.097-0.246,0.293-0.496C32.551,6.282,32.912,5.821,32.993,5.114z"/><path d="M26.983,5.114c0.108-0.943-0.328-1.896-1.299-2.834L24.296,3.72c0.478,0.461,0.733,0.886,0.701,1.168  c-0.016,0.131-0.097,0.245-0.293,0.495c-0.265,0.336-0.626,0.796-0.707,1.505c-0.107,0.942,0.329,1.895,1.298,2.831l1.391-1.438  c-0.478-0.462-0.733-0.888-0.702-1.167c0.016-0.131,0.097-0.246,0.293-0.495C26.541,6.282,26.903,5.821,26.983,5.114z"/><path d="M38.983,5.114c0.108-0.943-0.328-1.896-1.299-2.834L36.296,3.72c0.478,0.461,0.733,0.886,0.701,1.168  c-0.016,0.131-0.097,0.245-0.293,0.495c-0.265,0.336-0.626,0.796-0.707,1.505c-0.107,0.942,0.329,1.895,1.298,2.831l1.391-1.438  c-0.478-0.462-0.733-0.888-0.702-1.167c0.016-0.131,0.097-0.246,0.293-0.495C38.541,6.282,38.903,5.821,38.983,5.114z"/><text x="0" y="79" fill="#000000" font-size="5px" font-weight="bold" font-family="'Helvetica Neue', Helvetica, Arial-Unicode, Arial, Sans-serif">Created by Becris</text><text x="0" y="84" fill="#000000" font-size="5px" font-weight="bold" font-family="'Helvetica Neue', Helvetica, Arial-Unicode, Arial, Sans-serif">from the Noun Project</text></svg>