<svg xmlns="http://www.w3.org/2000/svg" xmlns:xlink="http://www.w3.org/1999/xlink" version="1.1" x="0px" y="0px" viewBox="0 0 100 125" enable-background="new 0 0 100 100" xml:space="preserve"><path d="M32.846,18.543c-1.434,1.137-2.674,2.462-3.744,3.945c-0.568,0.788,0.45,2.329,1.184,1.313  c0.984-1.364,2.151-2.561,3.469-3.606C34.494,19.608,33.758,17.819,32.846,18.543z"/><path d="M94.963,68.319c0-0.026,0.014-0.044,0.012-0.072c-0.341-4.906-5.495-7.985-10.162-7.661  c-1.855,0.129-3.366,0.822-4.555,1.865c-2.061-1.494-4.048-3.014-5.84-4.854c-0.012-0.012-0.026-0.021-0.039-0.032  c4.247-5.828,6.732-13.104,6.883-20.368C80.833,19.523,65.971,8.226,49.035,7.904C31.647,7.573,18.104,22.642,17.727,39.423  c-0.172,7.665,2.912,14.276,7.785,19.356c-1.485,1.597-3.025,2.984-4.752,4.284c-4.703-4.648-15.296-2.633-15.736,5.436  c-0.278,5.093,5.089,9.329,9.734,9.623c5.338,0.338,8.035-5.496,8.207-9.949c-0.085-1.554-0.537-2.858-1.238-3.929  c1.754-1.339,3.328-2.778,4.849-4.407c5.981,5.678,14.264,9.214,22.536,9.834c-0.196,1.728-0.335,3.349-0.133,5.035  c-4.004,0.587-7.687,3.302-7.982,7.567c-0.336,4.838,3.082,9.473,7.951,9.812c5.151,0.358,9.741-4.895,10.045-9.686  c-0.193-4.85-3.147-7.62-7.951-7.812c-0.08-0.003-0.16,0.001-0.24,0c-0.281-1.638-0.186-3.19-0.006-4.829  c0.07,0.001,0.14,0.007,0.209,0.009c9.191,0.19,16.92-4.202,22.269-10.771c1.802,1.764,3.77,3.27,5.809,4.743  c-1.472,1.997-2.151,4.685-2.046,7.342c0.172,4.319,3.911,7.272,8.141,7.004c5.069-0.321,9.487-4.515,9.812-9.635  C94.99,68.401,94.969,68.364,94.963,68.319z M13.806,76.38c-0.924-0.171-1.795-0.552-2.591-1.074  c-0.162-0.326-0.316-0.653-0.395-1.016c-0.096-0.443-0.041-0.893-0.021-1.341c0.034-0.745-0.863-0.813-0.898-0.063  C9.881,73.351,9.857,73.8,9.9,74.252c-1.48-1.434-2.535-3.371-2.883-5.251c-1.309-7.072,8.646-8.774,12.517-4.307  c0.05,0.219,0.18,0.393,0.373,0.474c0.633,0.899,1.044,2.005,1.116,3.33c-0.016,0.4-0.056,0.806-0.11,1.212  c-0.326-0.317-0.679-0.61-1.063-0.908c-0.594-0.459-0.875,0.621-0.416,0.976c0.475,0.367,0.889,0.724,1.262,1.136  c-0.264,1.121-0.692,2.189-1.293,3.092c-0.057-0.088-0.099-0.179-0.166-0.267c-0.35-0.454-0.781-0.845-1.185-1.25  c-0.415-0.417-1.157,0.524-0.73,0.952c0.501,0.502,0.95,0.969,1.299,1.535c-0.676,0.682-1.504,1.176-2.495,1.391  c-0.008-0.022-0.007-0.045-0.02-0.066c-0.681-1.141-1.233-2.198-1.567-3.49c-0.175-0.676-1.175-0.088-1.033,0.461  c0.304,1.177,0.771,2.182,1.353,3.21C14.521,76.475,14.174,76.448,13.806,76.38z M56.973,81.989  c-0.125-0.059-0.248-0.119-0.391-0.171c-0.566-0.209-1.124,0.851-0.574,1.055c0.293,0.108,0.584,0.206,0.852,0.367  c-0.209,1.179-0.654,2.262-1.285,3.227c-0.832-0.961-1.742-1.811-2.722-2.661c-0.564-0.49-0.851,0.599-0.416,0.976  c0.921,0.798,1.773,1.593,2.554,2.493c-0.664,0.807-1.469,1.501-2.374,2.074c-0.108-0.206-0.224-0.408-0.377-0.606  c-0.35-0.454-0.781-0.845-1.185-1.25c-0.415-0.417-1.157,0.524-0.73,0.952c0.484,0.485,0.915,0.939,1.258,1.479  c-0.193,0.094-0.379,0.2-0.579,0.284c-0.802,0.334-1.546,0.458-2.234,0.426c-0.535-0.903-0.967-1.767-1.228-2.817  c-0.168-0.678-1.17-0.09-1.033,0.461c0.18,0.726,0.433,1.37,0.738,1.997c-2.251-0.994-3.662-3.834-4.141-6.31  c-0.836-4.318,2.465-7.002,6.344-7.752c0.02-0.003,0.037-0.005,0.056-0.008c0.192,0.065,0.427,0.024,0.649-0.096  C54.063,75.669,56.699,78.127,56.973,81.989z M19.262,39.299c-0.427-16.455,13.856-29.075,29.641-29.43  C64.68,9.514,79.332,21.09,79.727,37.321c-0.086,4.14-0.914,8.13-2.372,11.784c-0.952-0.429-1.876-0.749-2.925-0.94  c-0.557-0.102-1.06,0.943-0.371,1.068c1.025,0.187,1.916,0.521,2.847,0.955c-0.442,1.003-0.939,1.974-1.478,2.917  c-1.121-0.802-2.193-1.633-3.213-2.576c-0.514-0.474-1.025,0.569-0.609,0.954c1.029,0.952,2.113,1.793,3.241,2.606  c-0.564,0.911-1.178,1.787-1.83,2.628c-0.815-0.818-1.663-1.523-2.68-2.163c-0.479-0.301-1.403,0.415-0.814,0.785  c1.061,0.667,1.921,1.41,2.763,2.287c-0.637,0.76-1.313,1.485-2.021,2.175c-0.732-0.811-1.427-1.633-2.018-2.568  c-0.323-0.51-1.402,0.01-1.088,0.508c0.66,1.042,1.432,1.958,2.25,2.864c-0.688,0.617-1.406,1.202-2.151,1.751  c-0.555-0.766-1.149-1.465-1.878-2.131c-0.463-0.423-1.348,0.086-0.77,0.614c0.71,0.65,1.275,1.35,1.808,2.112  c-0.773,0.526-1.575,1.016-2.403,1.464c-0.57-1.056-1.076-2.108-1.46-3.265c-0.248-0.746-1.046-0.092-0.85,0.499  c0.378,1.139,0.859,2.186,1.409,3.228c-1.02,0.505-2.072,0.958-3.164,1.34c-0.196-0.705-0.333-1.41-0.388-2.189  c-0.048-0.686-0.979-0.807-0.924-0.024c0.062,0.881,0.221,1.685,0.451,2.49c-2.489,0.78-5.146,1.239-7.952,1.307  C35.168,68.189,19.687,55.646,19.262,39.299z M86.497,76.372c-0.104-0.288-0.214-0.572-0.353-0.847  c-0.238-0.475-0.591-0.837-0.953-1.218c-0.434-0.456-1.021,0.586-0.627,1.001c0.401,0.422,0.664,0.853,0.883,1.325  c-3.625,0.535-6.313-2.512-6.46-6.183c-0.083-2.07,0.542-4.289,1.813-5.95c0.468-0.117,0.868-0.488,0.79-0.876  c0.617-0.582,1.339-1.05,2.164-1.354c4.058-1.494,8.853,2.034,9.239,6.007c-0.075,1.073-0.356,2.076-0.779,3.005  c-0.262-0.203-0.501-0.434-0.722-0.735c-0.384-0.522-1.292,0.237-0.957,0.694c0.264,0.358,0.506,0.687,0.855,0.966  c0.074,0.06,0.16,0.103,0.239,0.155c-0.504,0.794-1.128,1.506-1.853,2.124c-0.302-0.262-0.594-0.535-0.846-0.853  c-0.393-0.495-0.644-1.071-0.921-1.634c-0.128-0.259-0.467-0.239-0.635-0.045c-0.212,0.244-0.194,0.575-0.061,0.847  c0.311,0.629,0.604,1.234,1.042,1.787c0.165,0.208,0.354,0.387,0.543,0.568c-0.582,0.395-1.197,0.75-1.862,1.027  C86.855,76.259,86.676,76.313,86.497,76.372z"/><path d="M56.41,45.663c0.288-1.89,1.026-3.61,2.872-5.342c8.577-8.049,0.056-19.433-9.829-19.998  c-5.295,0.391-8.648,3.96-10.545,8.71c-1.293,3.236-1.81,8.453,1.011,11.103c1.471,1.382,4.448,2.381,4.448,4.804  c0,1.991,0,3.982,0,5.973c0,3.568,2.43,4.063,5.431,4.063c2.71,0,6.452,0.282,6.457-3.551c0.002-1.707-0.069-3.235,0.03-4.655  C56.776,46.473,57.014,45.931,56.41,45.663z M40.373,37.949c-2.217-2.749-0.533-7.45,0.8-10.135c1.603-3.23,4.618-5.232,8.169-5.494  c6.433,0.368,13.01,5.033,11.738,12.22c-0.613,3.472-4.219,4.521-5.579,7.424c-0.458,0.978-0.597,2.125-0.633,3.302  c-3.04-0.604-5.833-0.271-8.981,0.223c-0.029-0.938-0.129-1.867-0.409-2.765C44.79,40.52,41.742,39.647,40.373,37.949z   M53.769,52.044c-1.563-1.944-3.3-3.699-5.083-5.451c0.994-0.121,1.97-0.195,2.95-0.18c0.661,1.432,1.306,2.851,2.579,3.847  c0.115,0.091,0.27,0.126,0.426,0.124C54.482,51.038,54.216,51.607,53.769,52.044z M54.801,49.418  c-0.867-0.807-1.4-1.858-1.896-2.936c0.641,0.064,1.291,0.187,1.955,0.354C54.868,47.735,54.881,48.616,54.801,49.418z   M45.929,49.839L45.929,49.839c0.904,0.411,1.438,0.892,2.056,1.678c0.336,0.429,0.638,0.889,0.932,1.354  C47.107,52.621,46.166,51.85,45.929,49.839z M50.824,52.979c-0.155,0-0.303-0.003-0.449-0.006c-0.497-0.776-0.986-1.56-1.537-2.298  c-0.645-0.866-1.286-1.38-2.253-1.818c-0.247-0.112-0.532,0.043-0.708,0.264c-0.006-0.144-0.012-0.285-0.012-0.439  c0-0.563,0.016-1.133,0.026-1.703c0.048-0.002,0.091,0.009,0.14,0.001c0.609-0.097,1.199-0.188,1.784-0.271  c-0.058,0.237-0.034,0.508,0.128,0.667c1.727,1.695,3.417,3.381,4.946,5.245C52.355,52.849,51.683,52.979,50.824,52.979z"/><path d="M48.564,25.391c-2.893,0.516-5.07,2.709-5.771,5.525c-0.103,0.412,0.14,0.975,0.615,0.98  c0.529,0.006,0.816-0.525,0.926-0.964c0.507-2.036,2.35-3.305,4.326-3.658C49.59,27.108,49.712,25.186,48.564,25.391z"/><text x="0" y="115" fill="#000000" font-size="5px" font-weight="bold" font-family="'Helvetica Neue', Helvetica, Arial-Unicode, Arial, Sans-serif">Created by Tomas Knopp</text><text x="0" y="120" fill="#000000" font-size="5px" font-weight="bold" font-family="'Helvetica Neue', Helvetica, Arial-Unicode, Arial, Sans-serif">from the Noun Project</text></svg>